<svg width="32" height="27" viewBox="0 0 32 27" fill="none" xmlns="http://www.w3.org/2000/svg">
<path d="M30.931 23.4588L28.5898 19.2258C30.2598 14.5258 28.4147 9.14903 24.2316 6.62816C22.6621 5.68071 20.9143 5.21037 19.147 5.23406C16.5172 1.07207 11.2932 -0.237429 7.1198 2.27668C3.3388 4.55731 1.66557 9.41635 3.1637 13.6663L1.06566 17.4595C0.978112 17.6151 0.978112 17.8046 1.06566 17.9603C1.15322 18.1159 1.31211 18.2107 1.48397 18.2107H6.57178C7.62891 18.9551 8.84168 19.4626 10.0998 19.6893C10.9365 21.7568 12.386 23.4757 14.2829 24.6161C15.82 25.5432 17.5386 26 19.254 26C21.2191 26 23.1777 25.3977 24.8574 24.21H30.5192C30.691 24.21 30.8499 24.1153 30.9375 23.9596C31.025 23.804 31.0186 23.6145 30.931 23.4588ZM6.99333 17.3004C6.91227 17.2395 6.81499 17.2091 6.7177 17.2091H2.31411L4.11057 13.9607C4.18515 13.8287 4.19488 13.6663 4.13975 13.5242C2.67405 9.68028 4.16245 5.22053 7.60296 3.1463C11.1667 0.997632 15.593 1.97215 18.0283 5.31865C17.5775 5.37956 17.1268 5.46754 16.6793 5.59274C14.1111 6.31009 11.9644 8.02902 10.6349 10.4315C9.30538 12.8339 8.95193 15.6323 9.63938 18.3122C9.66208 18.4035 9.69127 18.4915 9.71721 18.5829C8.7444 18.3359 7.81374 17.8994 6.99333 17.3004ZM24.705 23.2084C24.6045 23.2084 24.5104 23.2389 24.4294 23.2998C21.5758 25.3909 17.7818 25.5669 14.7629 23.7498C12.6843 22.4978 11.1959 20.4744 10.5733 18.055C9.95068 15.6356 10.2717 13.108 11.4715 10.9356C12.6713 8.76667 14.6105 7.21354 16.929 6.56386C17.704 6.34731 18.4887 6.23903 19.2702 6.23903C20.8267 6.23903 22.367 6.66538 23.7516 7.50116C27.591 9.81563 29.2513 14.7931 27.6137 19.087C27.5586 19.2292 27.5716 19.3916 27.6429 19.5235L29.6826 23.2084H24.705ZM14.5456 13.6731C13.5144 13.6731 12.6746 14.5495 12.6746 15.6255C12.6746 16.7015 13.5144 17.5779 14.5456 17.5779C15.5768 17.5779 16.4166 16.7015 16.4166 15.6255C16.4166 14.5495 15.5768 13.6731 14.5456 13.6731ZM14.5456 16.5729C14.0462 16.5729 13.6376 16.1466 13.6376 15.6255C13.6376 15.1044 14.0462 14.678 14.5456 14.678C15.045 14.678 15.4536 15.1044 15.4536 15.6255C15.4536 16.1466 15.045 16.5729 14.5456 16.5729ZM19.361 13.6731C18.3298 13.6731 17.49 14.5495 17.49 15.6255C17.49 16.7015 18.3298 17.5779 19.361 17.5779C20.3922 17.5779 21.2321 16.7015 21.2321 15.6255C21.2321 14.5495 20.3922 13.6731 19.361 13.6731ZM19.361 16.5729C18.8616 16.5729 18.4531 16.1466 18.4531 15.6255C18.4531 15.1044 18.8616 14.678 19.361 14.678C19.8604 14.678 20.269 15.1044 20.269 15.6255C20.269 16.1466 19.8636 16.5729 19.361 16.5729ZM24.1797 13.6731C23.1485 13.6731 22.3086 14.5495 22.3086 15.6255C22.3086 16.7015 23.1485 17.5779 24.1797 17.5779C25.2109 17.5779 26.0507 16.7015 26.0507 15.6255C26.0507 14.5495 25.2109 13.6731 24.1797 13.6731ZM24.1797 16.5729C23.6803 16.5729 23.2717 16.1466 23.2717 15.6255C23.2717 15.1044 23.6803 14.678 24.1797 14.678C24.6791 14.678 25.0876 15.1044 25.0876 15.6255C25.0876 16.1466 24.6791 16.5729 24.1797 16.5729Z" fill="#FFF2D8" stroke="#FFF2D8" stroke-width="0.5"/>
</svg>
